<svg width="1024" height="1024" viewBox="0 0 1024 1024" fill="none" xmlns="http://www.w3.org/2000/svg">
  <defs>
    <linearGradient id="filmL" x1="86" y1="128" x2="180" y2="640" gradientUnits="userSpaceOnUse">
      <stop offset="0" stop-color="#6A58FF"/>
      <stop offset="1" stop-color="#C24EE8"/>
    </linearGradient>
    <linearGradient id="filmR" x1="838" y1="128" x2="930" y2="640" gradientUnits="userSpaceOnUse">
      <stop offset="0" stop-color="#FF5FA8"/>
      <stop offset="1" stop-color="#FF9D51"/>
    </linearGradient>
    <linearGradient id="word" x1="162" y1="700" x2="812" y2="930" gradientUnits="userSpaceOnUse">
      <stop offset="0" stop-color="#C26BFF"/>
      <stop offset="0.5" stop-color="#FF77B3"/>
      <stop offset="1" stop-color="#FFB25E"/>
    </linearGradient>
    <radialGradient id="frameGlow" cx="0" cy="0" r="1" gradientUnits="userSpaceOnUse" gradientTransform="translate(508 394) rotate(90) scale(318 300)">
      <stop offset="0" stop-color="#F7ED86"/>
      <stop offset="0.5" stop-color="#FFB154"/>
      <stop offset="1" stop-color="#7C4DFF"/>
    </radialGradient>
    <filter id="softShadow" x="0" y="0" width="1024" height="1024" filterUnits="userSpaceOnUse" color-interpolation-filters="sRGB">
      <feDropShadow dx="0" dy="16" stdDeviation="24" flood-opacity="0.28"/>
    </filter>
  </defs>

  <g filter="url(#softShadow)">
    <rect x="86" y="128" width="92" height="512" rx="28" fill="url(#filmL)"/>
    <rect x="846" y="128" width="92" height="512" rx="28" fill="url(#filmR)"/>

    <rect x="206" y="120" width="612" height="528" rx="10" fill="url(#frameGlow)"/>

    <rect x="106" y="174" width="52" height="62" rx="8" fill="#040817"/>
    <rect x="106" y="270" width="52" height="62" rx="8" fill="#040817"/>
    <rect x="106" y="366" width="52" height="62" rx="8" fill="#040817"/>
    <rect x="106" y="462" width="52" height="62" rx="8" fill="#040817"/>
    <rect x="106" y="558" width="52" height="62" rx="8" fill="#040817"/>

    <rect x="866" y="174" width="52" height="62" rx="8" fill="#040817"/>
    <rect x="866" y="270" width="52" height="62" rx="8" fill="#040817"/>
    <rect x="866" y="366" width="52" height="62" rx="8" fill="#040817"/>
    <rect x="866" y="462" width="52" height="62" rx="8" fill="#040817"/>
    <rect x="866" y="558" width="52" height="62" rx="8" fill="#040817"/>

    <text x="512" y="920" text-anchor="middle" fill="url(#word)" font-size="232" font-style="italic" font-weight="700" font-family="Georgia, 'Times New Roman', serif">
      Solis
    </text>
  </g>
</svg>
